<svg width="745" height="202" viewBox="0 0 745 202" fill="none" xmlns="http://www.w3.org/2000/svg">
<g clip-path="url(#clip0_324_2584)">
<path d="M141.067 24.62C134.425 24.62 129.007 30.0376 129.007 36.68V68.84C129.007 75.4824 134.425 80.9 141.067 80.9H189.307C195.95 80.9 201.367 75.4824 201.367 68.84V36.68C201.367 30.0376 195.95 24.62 189.307 24.62H141.067ZM120.967 56.78L80.7672 86.93V96.98L120.967 66.83V56.78ZM12.4272 72.86C5.78476 72.86 0.367188 78.2776 0.367188 84.92V117.08C0.367188 123.722 5.78476 129.14 12.4272 129.14H60.6672C67.3096 129.14 72.7272 123.722 72.7272 117.08V84.92C72.7272 78.2776 67.3096 72.86 60.6672 72.86H12.4272ZM80.7672 105.02V115.07L120.967 145.22V135.17L80.7672 105.02ZM141.067 121.1C134.425 121.1 129.007 126.518 129.007 133.16V165.32C129.007 171.962 134.425 177.38 141.067 177.38H189.307C195.95 177.38 201.367 171.962 201.367 165.32V133.16C201.367 126.518 195.95 121.1 189.307 121.1H141.067Z" fill="url(#paint0_linear_324_2584)"/>
</g>
<path d="M499.988 80.12V68.24H462.367V80.14H474.789V80.12H499.988Z" fill="white"/>
<path d="M462.367 95.06V131.24H474.789V106.94H499.266V95.06L462.367 95.06Z" fill="white"/>
<path d="M295.387 108.48L309.336 132.24H295.926L283.238 110.37H273.789V132.24H261.367V99.49H276.316V99.48H286.566C291.246 99.48 295.117 95.25 295.117 90.12C295.117 84.99 291.246 80.85 286.566 80.85L261.367 80.85V69.24H286.566C292.418 69.24 297.367 71.31 301.418 75.36C305.469 79.41 307.539 84.36 307.539 90.12C307.539 97.95 302.676 105.15 295.387 108.48Z" fill="white"/>
<path d="M339.758 106.23V106.24H327.336V94.53H363.605V106.23H339.758Z" fill="white"/>
<path d="M327.336 81.12V69.24H365.855V81.12H327.336Z" fill="white"/>
<path d="M340.406 120.36V120.39H327.336V132.24H366.305V120.36H340.406Z" fill="white"/>
<path d="M443.883 132.24H430.383L427.891 124.752L414.23 83.24H413.738L397.617 132.24H384.305L406.355 69.24H421.746L443.883 132.24Z" fill="white"/>
<path d="M530.789 69.24V120.36H554.816V132.24H518.367V69.24H530.789Z" fill="white"/>
<path d="M675.004 132.24H689.137L700.926 90.66L712.805 132.24H726.938L744.574 69.24H731.527L719.465 115.95L706.234 69.24H695.617L682.477 115.95L670.414 69.24H657.367L675.004 132.24Z" fill="white"/>
<path fill-rule="evenodd" clip-rule="evenodd" d="M629.258 124.31C622.867 130.61 615.129 133.76 606.039 133.76C596.949 133.76 589.207 130.61 582.82 124.31C576.52 117.92 573.367 110.18 573.367 101C573.367 91.82 576.52 84.08 582.82 77.78C589.207 71.39 596.949 68.24 606.039 68.24C615.129 68.24 622.867 71.39 629.258 77.78C635.648 84.08 638.797 91.82 638.797 101C638.797 110.18 635.648 117.92 629.258 124.31ZM591.547 115.85C595.418 119.72 600.277 121.61 606.039 121.61C611.797 121.61 616.66 119.72 620.527 115.85C624.398 111.98 626.379 107.03 626.379 101C626.379 94.97 624.398 90.02 620.527 86.15C616.66 82.28 611.797 80.3 606.039 80.3C600.277 80.3 595.418 82.28 591.547 86.15C587.68 90.02 585.699 94.97 585.699 101C585.699 107.03 587.68 111.98 591.547 115.85Z" fill="white"/>
<defs>
<linearGradient id="paint0_linear_324_2584" x1="31.613" y1="158.37" x2="137.695" y2="-23.1903" gradientUnits="userSpaceOnUse">
<stop stop-color="#105EFF"/>
<stop offset="0.413357" stop-color="#009BFF"/>
<stop offset="0.735652" stop-color="#105EFF"/>
<stop offset="1" stop-color="#090E43"/>
</linearGradient>
<clipPath id="clip0_324_2584">
<rect width="201" height="201" fill="white" transform="translate(0.367188 0.5)"/>
</clipPath>
</defs>
</svg>
